# xmcd
#
# Track frame offsets:
# 150
# 12940
# 29042
# 45650
# 61007
# 75805
# 95055
# 108762
# 123770
# 143397
# 158187
# 175845
#
# Disc length: 2543 seconds
#
#
# Revision: 0
# Processed by: cddbd v1.5.1PL0 Copyright (c) Steve Scherf et al.
# Submitted via: FreeRIP 2.942 
#
DISCID=8509ed0c
DTITLE=Chitãozinho and Xororó - Disco de Ouro
DYEAR=1900
DGENRE=Sertanejo
TTITLE0=Ela fez minha cabeça
TTITLE1=Faz um ano
TTITLE2=Fogão de lenha
TTITLE3=Galopeira (estúdio)
TTITLE4=Queixas
TTITLE5=A mais bonita das noites
TTITLE6=Quem é você
TTITLE7=Terra querida
TTITLE8=A colheita
TTITLE9=Uma noite especial
TTITLE10=O último julgamento
TTITLE11=Pé na estrada
EXTD=
EXTT0=
EXTT1=
EXTT2=
EXTT3=
EXTT4=
EXTT5=
EXTT6=
EXTT7=
EXTT8=
EXTT9=
EXTT10=
EXTT11=
PLAYORDER=
